<svg width="35" height="21" viewBox="0 0 35 21" fill="none" xmlns="http://www.w3.org/2000/svg">
<path d="M34.6231 10.8462C34.6231 16.4335 30.1103 21.0001 24.4693 21.0001C18.882 21.0001 14.3154 16.4335 14.3154 10.8462C14.3154 5.25893 18.8283 0.692383 24.4156 0.692383C30.1103 0.692383 34.6231 5.25893 34.6231 10.8462Z" fill="#FFB600"/>
<path d="M24.4693 0.692383C30.0566 0.692383 34.6231 5.25893 34.6231 10.8462C34.6231 16.4335 30.1103 21.0001 24.4693 21.0001C18.882 21.0001 14.3154 16.4335 14.3154 10.8462" fill="#F7981D"/>
<path d="M24.4692 0.692383C30.0565 0.692383 34.6231 5.25893 34.6231 10.8462C34.6231 16.4335 30.1103 21.0001 24.4692 21.0001" fill="#FF8500"/>
<path d="M10.8238 0.692383C5.29017 0.746107 0.777344 5.25893 0.777344 10.8462C0.777344 16.4335 5.29017 21.0001 10.9312 21.0001C13.5637 21.0001 15.9275 19.9793 17.7542 18.3676C18.1302 18.0453 18.4526 17.6692 18.7749 17.2931H16.6797C16.4111 16.9708 16.1424 16.5947 15.9275 16.2724H19.5271C19.742 15.95 19.9568 15.574 20.118 15.1979H15.3366C15.1754 14.8755 15.0142 14.4995 14.9068 14.1234H20.4941C20.8164 13.1027 21.0313 12.0282 21.0313 10.9C21.0313 10.1478 20.9239 9.44941 20.8164 8.751H14.5844C14.6382 8.37493 14.7456 8.05259 14.8531 7.67652H20.4404C20.3329 7.30045 20.1717 6.92438 20.0106 6.60204H15.2829C15.444 6.22597 15.6589 5.90362 15.8738 5.52755H19.4733C19.2584 5.15148 18.9898 4.77542 18.6675 4.45307H16.6797C17.002 4.077 17.3244 3.75466 17.7004 3.43231C15.9275 1.76687 13.51 0.799831 10.8775 0.799831C10.8775 0.692383 10.8775 0.692383 10.8238 0.692383Z" fill="#FF5050"/>
<path d="M0.777344 10.8462C0.777344 16.4335 5.29017 21.0001 10.9312 21.0001C13.5637 21.0001 15.9275 19.9793 17.7542 18.3676C18.1302 18.0452 18.4526 17.6692 18.7749 17.2931H16.6797C16.4111 16.9708 16.1424 16.5947 15.9275 16.2723H19.5271C19.742 15.95 19.9568 15.5739 20.118 15.1979H15.3366C15.1754 14.8755 15.0142 14.4995 14.9068 14.1234H20.4941C20.8164 13.1026 21.0313 12.0281 21.0313 10.8999C21.0313 10.1478 20.9239 9.44939 20.8164 8.75097H14.5844C14.6382 8.3749 14.7456 8.05256 14.8531 7.67649H20.4404C20.3329 7.30042 20.1717 6.92435 20.0106 6.60201H15.2829C15.444 6.22594 15.6589 5.90359 15.8738 5.52753H19.4733C19.2584 5.15146 18.9898 4.77539 18.6675 4.45304H16.6797C17.002 4.07698 17.3244 3.75463 17.7004 3.43229C15.9275 1.76684 13.51 0.799805 10.8775 0.799805H10.8238" fill="#E52836"/>
<path d="M10.9317 21.0001C13.5641 21.0001 15.928 19.9793 17.7546 18.3676C18.1307 18.0452 18.453 17.6692 18.7754 17.2931H16.6801C16.4115 16.9708 16.1429 16.5947 15.928 16.2723H19.5275C19.7424 15.95 19.9573 15.5739 20.1185 15.1979H15.337C15.1759 14.8755 15.0147 14.4995 14.9072 14.1234H20.4946C20.8169 13.1026 21.0318 12.0281 21.0318 10.8999C21.0318 10.1478 20.9243 9.44939 20.8169 8.75097H14.5849C14.6386 8.3749 14.7461 8.05256 14.8535 7.67649H20.4408C20.3334 7.30042 20.1722 6.92435 20.011 6.60201H15.2833C15.4445 6.22594 15.6594 5.90359 15.8743 5.52753H19.4738C19.2589 5.15146 18.9903 4.77539 18.6679 4.45304H16.6801C17.0025 4.07698 17.3248 3.75463 17.7009 3.43229C15.928 1.76684 13.5104 0.799805 10.8779 0.799805H10.8242" fill="#CB2026"/>
<path d="M14.5297 13.424L14.6909 12.5107C14.6371 12.5107 14.5297 12.5644 14.4222 12.5644C14.0462 12.5644 13.9924 12.3495 14.0462 12.2421L14.3685 10.3617H14.9595L15.1206 9.34098H14.5834L14.6909 8.69629H13.6164C13.6164 8.69629 12.9717 12.2421 12.9717 12.6719C12.9717 13.3166 13.3477 13.5852 13.8313 13.5852C14.1536 13.5852 14.4222 13.4777 14.5297 13.424Z" fill="white"/>
<path d="M14.9092 11.7047C14.9092 13.2089 15.9299 13.585 16.7895 13.585C17.5954 13.585 17.9177 13.4238 17.9177 13.4238L18.1326 12.4031C18.1326 12.4031 17.5417 12.6717 17.0044 12.6717C15.8225 12.6717 16.0374 11.8121 16.0374 11.8121H18.2401C18.2401 11.8121 18.4012 11.1137 18.4012 10.8451C18.4012 10.1467 18.0252 9.28707 16.8432 9.28707C15.715 9.17962 14.9092 10.3616 14.9092 11.7047ZM16.7895 10.1467C17.3805 10.1467 17.273 10.8451 17.273 10.8988H16.0911C16.0911 10.8451 16.1986 10.1467 16.7895 10.1467Z" fill="white"/>
<path d="M23.6179 13.4241L23.8328 12.2422C23.8328 12.2422 23.2956 12.5108 22.9195 12.5108C22.1674 12.5108 21.845 11.9199 21.845 11.2752C21.845 9.98579 22.4897 9.28737 23.2418 9.28737C23.7791 9.28737 24.2089 9.60972 24.2089 9.60972L24.37 8.48151C24.37 8.48151 23.7254 8.21289 23.1344 8.21289C21.8987 8.21289 20.6631 9.28737 20.6631 11.3289C20.6631 12.672 21.3078 13.5853 22.5972 13.5853C23.0269 13.5853 23.6179 13.4241 23.6179 13.4241Z" fill="white"/>
<path d="M8.62257 9.17969C7.87043 9.17969 7.33319 9.39458 7.33319 9.39458L7.17202 10.3079C7.17202 10.3079 7.65554 10.093 8.35395 10.093C8.73002 10.093 9.05236 10.1467 9.05236 10.4691C9.05236 10.684 8.99864 10.7377 8.99864 10.7377C8.99864 10.7377 8.67629 10.7377 8.51512 10.7377C7.60181 10.7377 6.58105 11.1138 6.58105 12.3494C6.58105 13.3164 7.22574 13.5313 7.60181 13.5313C8.35395 13.5313 8.67629 13.0478 8.73002 13.0478L8.67629 13.4776H9.64333L10.0731 10.5228C10.0731 9.23341 8.99864 9.17969 8.62257 9.17969ZM8.83747 11.5973C8.83747 11.7584 8.73002 12.618 8.08533 12.618C7.76298 12.618 7.65554 12.3494 7.65554 12.1882C7.65554 11.9196 7.81671 11.5435 8.62257 11.5435C8.78374 11.5973 8.83747 11.5973 8.83747 11.5973Z" fill="white"/>
<path d="M11.0941 13.5314C11.3627 13.5314 12.7058 13.5851 12.7058 12.1345C12.7058 10.7914 11.4164 11.06 11.4164 10.5228C11.4164 10.2542 11.6313 10.1467 12.0074 10.1467C12.1685 10.1467 12.7595 10.2005 12.7595 10.2005L12.9207 9.23343C12.9207 9.23343 12.5446 9.12598 11.8999 9.12598C11.0941 9.12598 10.2882 9.44832 10.2882 10.5228C10.2882 11.7585 11.6313 11.651 11.6313 12.1345C11.6313 12.4569 11.2552 12.5106 10.9866 12.5106C10.5031 12.5106 10.0196 12.3494 10.0196 12.3494L9.8584 13.3165C9.91212 13.4239 10.1807 13.5314 11.0941 13.5314Z" fill="white"/>
<path d="M32.534 8.32031L32.3191 9.77086C32.3191 9.77086 31.8893 9.23362 31.2983 9.23362C30.3313 9.23362 29.4717 10.4156 29.4717 11.8124C29.4717 12.672 29.9015 13.5853 30.8148 13.5853C31.4595 13.5853 31.8355 13.1555 31.8355 13.1555L31.7818 13.5316H32.8563L33.6622 8.37404L32.534 8.32031ZM32.0504 11.1677C32.0504 11.7587 31.7818 12.5108 31.1908 12.5108C30.8148 12.5108 30.5999 12.1884 30.5999 11.6512C30.5999 10.7916 30.976 10.2544 31.4595 10.2544C31.8355 10.2544 32.0504 10.523 32.0504 11.1677Z" fill="white"/>
<path d="M2.76978 13.4778L3.41447 9.60969L3.52192 13.4778H4.27406L5.67088 9.60969L5.07992 13.4778H6.20812L7.06771 8.32031H5.29481L4.22033 11.49L4.16661 8.32031H2.60861L1.74902 13.4778H2.76978Z" fill="white"/>
<path d="M19.4241 13.4776C19.7465 11.7047 19.8002 10.2541 20.5523 10.5228C20.6598 9.82435 20.8209 9.55573 20.9284 9.28711C20.9284 9.28711 20.8747 9.28711 20.7135 9.28711C20.23 9.28711 19.8539 9.9318 19.8539 9.9318L19.9614 9.34083H18.9406L18.2422 13.5313H19.4241V13.4776Z" fill="white"/>
<path d="M26.0879 9.17969C25.3358 9.17969 24.7985 9.39458 24.7985 9.39458L24.6374 10.3079C24.6374 10.3079 25.1209 10.093 25.8193 10.093C26.1954 10.093 26.5177 10.1467 26.5177 10.4691C26.5177 10.684 26.464 10.7377 26.464 10.7377C26.464 10.7377 26.1416 10.7377 25.9805 10.7377C25.0671 10.7377 24.0464 11.1138 24.0464 12.3494C24.0464 13.3164 24.6911 13.5313 25.0671 13.5313C25.8193 13.5313 26.1416 13.0478 26.1954 13.0478L26.1416 13.4776H27.1087L27.5385 10.5228C27.5922 9.23341 26.464 9.17969 26.0879 9.17969ZM26.3565 11.5973C26.3565 11.7584 26.2491 12.618 25.6044 12.618C25.282 12.618 25.1746 12.3494 25.1746 12.1882C25.1746 11.9196 25.3358 11.5435 26.1416 11.5435C26.3028 11.5973 26.3028 11.5973 26.3565 11.5973Z" fill="white"/>
<path d="M28.4476 13.4776C28.7699 11.7047 28.8236 10.2541 29.5758 10.5228C29.6832 9.82435 29.8444 9.55573 29.9518 9.28711C29.9518 9.28711 29.8981 9.28711 29.7369 9.28711C29.2534 9.28711 28.8773 9.9318 28.8773 9.9318L28.9848 9.34083H27.964L27.2656 13.5313H28.4476V13.4776Z" fill="white"/>
<path d="M12.8662 12.6719C12.8662 13.3166 13.2423 13.5852 13.7258 13.5852C14.1019 13.5852 14.4242 13.4777 14.5317 13.424L14.6928 12.5107C14.6391 12.5107 14.5317 12.5644 14.4242 12.5644C14.0481 12.5644 13.9944 12.3495 14.0481 12.2421L14.3705 10.3617H14.9615L15.1226 9.34098H14.5854L14.6928 8.69629" fill="#DCE5E5"/>
<path d="M15.4443 11.7047C15.4443 13.2089 15.9279 13.585 16.7874 13.585C17.5933 13.585 17.9156 13.4238 17.9156 13.4238L18.1305 12.4031C18.1305 12.4031 17.5396 12.6717 17.0023 12.6717C15.8204 12.6717 16.0353 11.8121 16.0353 11.8121H18.238C18.238 11.8121 18.3992 11.1137 18.3992 10.8451C18.3992 10.1467 18.0231 9.28707 16.8412 9.28707C15.713 9.17962 15.4443 10.3616 15.4443 11.7047ZM16.7874 10.1467C17.3784 10.1467 17.4859 10.8451 17.4859 10.8988H16.089C16.089 10.8451 16.1965 10.1467 16.7874 10.1467Z" fill="#DCE5E5"/>
<path d="M23.6158 13.4241L23.8307 12.2422C23.8307 12.2422 23.2935 12.5108 22.9174 12.5108C22.1653 12.5108 21.8429 11.9199 21.8429 11.2752C21.8429 9.98579 22.4876 9.28737 23.2398 9.28737C23.777 9.28737 24.2068 9.60972 24.2068 9.60972L24.368 8.48151C24.368 8.48151 23.7233 8.21289 23.1323 8.21289C21.8967 8.21289 21.1982 9.28737 21.1982 11.3289C21.1982 12.672 21.3057 13.5853 22.5951 13.5853C23.0249 13.5853 23.6158 13.4241 23.6158 13.4241Z" fill="#DCE5E5"/>
<path d="M7.17202 10.3616C7.17202 10.3616 7.65554 10.1467 8.35395 10.1467C8.73002 10.1467 9.05236 10.2004 9.05236 10.5228C9.05236 10.7377 8.99864 10.7914 8.99864 10.7914C8.99864 10.7914 8.67629 10.7914 8.51512 10.7914C7.60181 10.7914 6.58105 11.1675 6.58105 12.4031C6.58105 13.3701 7.22574 13.585 7.60181 13.585C8.35395 13.585 8.67629 13.1015 8.73002 13.1015L8.67629 13.5313H9.64333L10.0731 10.5765C10.0731 9.34083 8.99864 9.28711 8.56885 9.28711L7.17202 10.3616ZM9.37471 11.5972C9.37471 11.7584 8.73002 12.618 8.08533 12.618C7.76298 12.618 7.65554 12.3494 7.65554 12.1882C7.65554 11.9196 7.81671 11.5435 8.62257 11.5435C8.78374 11.5972 9.37471 11.5972 9.37471 11.5972Z" fill="#DCE5E5"/>
<path d="M9.91309 13.4239C9.91309 13.4239 10.2354 13.5314 11.1487 13.5314C11.4174 13.5314 12.7605 13.5851 12.7605 12.1345C12.7605 10.7914 11.4711 11.06 11.4711 10.5228C11.4711 10.2542 11.686 10.1467 12.062 10.1467C12.2232 10.1467 12.8142 10.2005 12.8142 10.2005L12.9754 9.23343C12.9754 9.23343 12.5993 9.12598 11.9546 9.12598C11.1487 9.12598 10.8801 9.44832 10.8801 10.5228C10.8801 11.7585 11.686 11.651 11.686 12.1345C11.686 12.4569 11.3099 12.5106 11.0413 12.5106" fill="#DCE5E5"/>
<path d="M32.3165 9.77085C32.3165 9.77085 31.8867 9.23361 31.2957 9.23361C30.3287 9.23361 30.0063 10.4155 30.0063 11.8124C30.0063 12.672 29.8989 13.5853 30.8122 13.5853C31.4569 13.5853 31.833 13.1555 31.833 13.1555L31.7792 13.5315H32.8537L33.6596 8.37402L32.3165 9.77085ZM32.2628 11.1677C32.2628 11.7586 31.7792 12.5108 31.1883 12.5108C30.8122 12.5108 30.5973 12.1884 30.5973 11.6512C30.5973 10.7916 30.9734 10.2544 31.4569 10.2544C31.833 10.2544 32.2628 10.523 32.2628 11.1677Z" fill="#DCE5E5"/>
<path d="M2.76978 13.4778L3.41447 9.60969L3.52192 13.4778H4.27406L5.67088 9.60969L5.07992 13.4778H6.20812L7.06771 8.32031H5.72461L4.22033 11.49L4.16661 8.32031H3.57564L1.74902 13.4778H2.76978Z" fill="#DCE5E5"/>
<path d="M18.2949 13.4776H19.4231C19.7455 11.7047 19.7992 10.2541 20.5513 10.5228C20.6588 9.82435 20.82 9.55573 20.9274 9.28711C20.9274 9.28711 20.8737 9.28711 20.7125 9.28711C20.229 9.28711 19.8529 9.9318 19.8529 9.9318L19.9604 9.34083" fill="#DCE5E5"/>
<path d="M24.6374 10.3616C24.6374 10.3616 25.1209 10.1467 25.8193 10.1467C26.1953 10.1467 26.5177 10.2004 26.5177 10.5228C26.5177 10.7377 26.464 10.7914 26.464 10.7914C26.464 10.7914 26.1416 10.7914 25.9805 10.7914C25.0671 10.7914 24.0464 11.1675 24.0464 12.4031C24.0464 13.3701 24.6911 13.585 25.0671 13.585C25.8193 13.585 26.1416 13.1015 26.1954 13.1015L26.1416 13.5313H27.1087L27.5385 10.5765C27.5385 9.34083 26.464 9.28711 26.0342 9.28711L24.6374 10.3616ZM26.84 11.5972C26.84 11.7584 26.1953 12.618 25.5507 12.618C25.2283 12.618 25.1209 12.3494 25.1209 12.1882C25.1209 11.9196 25.282 11.5435 26.0879 11.5435C26.3028 11.5972 26.84 11.5972 26.84 11.5972Z" fill="#DCE5E5"/>
<path d="M27.3232 13.4776H28.4514C28.7738 11.7047 28.8275 10.2541 29.5797 10.5228C29.6871 9.82435 29.8483 9.55573 29.9557 9.28711C29.9557 9.28711 29.902 9.28711 29.7408 9.28711C29.2573 9.28711 28.8812 9.9318 28.8812 9.9318L28.9887 9.34083" fill="#DCE5E5"/>
</svg>
