<svg width="19" height="22" viewBox="0 0 19 22" fill="none" xmlns="http://www.w3.org/2000/svg">
<path d="M16.6704 5.05948C16.5363 4.9805 16.3713 4.975 16.2323 5.04482C16.0934 5.11482 15.9995 5.25047 15.9829 5.40507C15.9664 5.55541 15.9408 5.70572 15.9087 5.86341C15.0113 9.9361 13.2091 11.917 10.3977 11.917H6.2728C6.0553 11.9174 5.86804 12.0705 5.82456 12.2836L4.44958 18.7286L4.20393 20.3695C4.06269 21.1156 4.55304 21.835 5.29914 21.9762C5.38143 21.9918 5.46491 21.9998 5.54866 22.0002H8.30777C8.94018 22.0021 9.49155 21.5705 9.64151 20.9561L10.7561 16.5003H13.1477C15.9701 16.5003 17.9207 14.2499 18.6403 10.1634C19.1153 8.21759 18.3295 6.18167 16.6704 5.05948Z" fill="#03A9F4"/>
<path d="M15.8048 1.63351C14.8991 0.606185 13.5994 0.0122793 12.2299 3.33789e-05H4.63995C3.50409 -0.0060681 2.53705 0.824979 2.37218 1.94881L0.0154638 17.6703C-0.0974136 18.4213 0.419794 19.1216 1.17075 19.2345C1.2389 19.2447 1.30777 19.2498 1.3767 19.2498H4.89665C5.11415 19.2494 5.30141 19.0962 5.34489 18.8831L6.64197 12.8332H10.4003C13.6617 12.8332 15.8168 10.5535 16.8068 6.04995C16.8466 5.87043 16.8772 5.68902 16.8984 5.50636C17.1282 4.11698 16.7274 2.69745 15.8048 1.63351Z" fill="#283593"/>
</svg>
