<svg width="49" height="16" viewBox="0 0 49 16" fill="none" xmlns="http://www.w3.org/2000/svg">
<path d="M19.9921 0.384277L17.614 15.183H21.4151L23.7917 0.384277H19.9921ZM31.4576 6.41244C30.1292 5.75648 29.3149 5.31377 29.3149 4.64287C29.3312 4.03288 30.0035 3.40794 31.505 3.40794C32.7399 3.37692 33.6476 3.66714 34.3362 3.95589L34.6811 4.10985L35.1979 1.0136C34.4471 0.72338 33.2567 0.403603 31.7863 0.403603C28.0326 0.403603 25.3894 2.35523 25.373 5.14649C25.342 7.20627 27.2654 8.34928 28.7048 9.03496C30.1752 9.73834 30.6757 10.1944 30.6757 10.8193C30.6595 11.7788 29.4868 12.2215 28.3925 12.2215C26.8763 12.2215 26.0618 11.9935 24.8254 11.4589L24.3249 11.2308L23.7933 14.4486C24.6862 14.8455 26.3283 15.1948 28.0328 15.2127C32.0219 15.2127 34.6176 13.2906 34.6503 10.3158C34.6633 8.684 33.6491 7.43413 31.4576 6.41244ZM44.9427 0.430075H42.0019C41.0957 0.430075 40.4071 0.690736 40.0147 1.62067L34.3685 15.183H38.3577L39.4563 12.2467H43.9194L44.4895 15.1948H48.0078L44.9427 0.430075ZM40.5627 9.28344C40.6396 9.29091 42.0938 4.49021 42.0938 4.49021L43.2518 9.28344C43.2518 9.28344 41.3135 9.28344 40.5627 9.28344ZM14.4378 0.384277L10.7137 10.4386L10.308 8.45582C9.61941 6.16802 7.46055 3.68192 5.05127 2.44699L8.46146 15.1682H12.4833L18.4596 0.385901H14.4378V0.384277Z" fill="#2394BC"/>
<path d="M9.05643 2.2936C8.76622 1.16521 7.84067 0.40418 6.58365 0.387939H0.68574L0.625 0.661754C5.22578 1.79599 9.08745 5.28608 10.3402 8.56894L9.05643 2.2936Z" fill="#EFC75E"/>
</svg>
